<svg id="Capa_1_copia" data-name="Capa 1 copia" xmlns="http://www.w3.org/2000/svg" viewBox="0 0 542.6 520.39"><defs><style>.cls-1{fill:#6dbd8d;}</style></defs><title>arbol</title><path class="cls-1" d="M185.5,266.13c2.46,1.19,4.37,2.82,4.63,2.84,3.21.25,7.58,6.36,13.66,4.38,3.25-1.07-.61-20.13.24-24.73,2.87-15.47-12.56-26.65-12.19-36.83.42-11.75,5.45-27.15,5.73-26,1.58,6.42-5.08,15.75-1.59,28.57,4.62,16.93,5.61,11.84,16.1,5.66,2.2-1.29-7.78,9.9-6.1,11.33,2.94,2.49,2.62,51.55,6.71,51.13,20.24-2.06,21.21-13.72,22.19-14.68,9.27-9-4.36-36-4.51-36.32-6.46-14.93-17.21-20.24-18.05-26.4-.26-1.92,12.26,11.13,14,13.14,2.57,2.92,13.3,26.9,14.63,27.81,2.33,1.61,7.56-32.83,8.9-37.34,7.24-24.31,11.47-29.88,4.39-5.67-2.62,9-6.19,32.21-7.68,46-1,9-.74,17-1.83,17.38s-6,10.34-6.09,11.33c-.46,7.67-10.39,9.79-12.69,12.37-2.86,3.22-8.81,1.19-11.7,6.18-3.13,5.39-6.89,4.92-4.56,11a6.43,6.43,0,0,0,7.48,3.55c1.11-.3,20.3-11.92,21.1-10.82,1,1.34-15.4,10.42-16.08,11.57-3.65,6.2-11.85,9.74-11,16.76.4,3.28-1.45,9.34-1.34,13.65.05,2.11,3.25,9.84,4,10.95,1.22,1.93,14.83-13,13.9-11.46-3.71,6-12.85,14.81-11.3,19.54.76,2.31,3.6,6.31,3.05,9-.63,3.09.11,6.49-.53,9.87-.44,2.37,2.35,3.33,4.2,3.75a8,8,0,0,1,6.4,5.83c1.78,5.33,5.82,5.41,10.21,4.62,3.74-.68,6.33-2.36,6.77-6.8a15.24,15.24,0,0,1,1.79-5.35c3.25-6.36,2.16-12.17-1.9-17.67-1.48-2-1.22-4.26-1-6.5.47-4.73,4.73-12.46,4.29-18-.74-9-8.66-17-5.86-17.51s10.87,14.54,10.47,17.42c-.36,2.67.35,5.63-1.32,9.62-.44,1.05-2.25,4.26-2,5.28.24.86-1.1,4.09-1,4.77,1,5.67,6.91,3.64,9.29,6.25,1.92,2.09,2.75,11.25,4.61,8.17.6-1,2.65-9,5-10.43,10.37-6.18,5.64-5.31,11.41-11.14,1.3-1.32,5-11.6,3.65-12.55-.18-6-.68-4.85-.36-11.79.08-1.78-.41-8.68-1.83-9.66-3.35-2.31-11.37-6.17-13.54-9.46-1.43-2.18-18-11.66-15.91-14.1,2.29-2.63,14.84,9.12,18,11.27,1.29.88,4.79,2.27,5.85,3.47,1.57,1.79,5.82,6.16,8.17,4.77,2.15-1.27,6.72-6.46,7.74-8.63,2.87-6.05-5.72-22-6.58-23.69-9-17.39-6.39-22-9.88-23.06-15.24-4.63-23.89-19.88-21.95-21.37.82-.63,8.45,13.53,16.1,14.94,4.59.84,7.64-.22,14.75-3.48,4.11-1.89,9.79-29.57,9.51-22.92-.25,6.29-3.41,24.21-10.73,29.23-4.7,3.23,1.69,16.19,3.05,18.29,4.66,7.19,8.94,20,11.77,18.73,3.46-1.57,4.51-1.62,8.35-1.35,5.13.35,12.36-5.57,15.37-9.27,1-1.2,3.57-13.51,5-16.23,2.45-4.64-1.8,16.56-4.61,20.21-2.6,3.37-9.26,6.62-12.89,8.7-1,.56-10.61,3.49-10.73,4.83-.77,8.32,1.4,8.79-4,13.91-5.24,5-4.82,13.54-3.57,20.23a26.05,26.05,0,0,1-.61,12.44c-1.21,3.9-.14,7.89-.88,11.83-.43,2.29,1.28,3.35,3.61,3.19,3.15-.22,9-.47,9.56-4.81.85-6.52,1.83-11.27,7.32-15.32,2.84-2.1,4.93-5.86,6-9.27,1.21-4,.45-8.23,3.32-11.14.91-.93,5.09-13.63,6.68-13.07,1.35.47-4.83,16.43-4.76,17.77.26,5.22,1.65,5.79-.73,10.56-1.76,3.51-1.63,2.83-5.49,6.69-.88.89-5.13,5.51-5,6.83a46.5,46.5,0,0,1,.12,5.66c0,1.13.16,6.9,1.34,7.44s12.24-3.95,12.53-4.92c6.41-2.71,7.41-4.64,9.15-7.54,1.18-1.16,6.65-18.18,8.08-17.51,1.61.76-2,11.29-2.44,13-.56,2.3-1.33,3.93-2.14,6.56-1.56,5-5.46,7.23-9.08,9.43-7,4.23-14.34,7.74-21.56,11.49a16.2,16.2,0,0,0-3.85,3.17c-1.09,1.21-2.23,1.67-3.79-.13a1.81,1.81,0,0,0-1.61-.3c-6,2.09-12.41,2-18.28,4.47-1.15.48-2.83,1.38-3,2.33-1.14,6.46-5.79,11.28-7.16,17.55-.92,4.16-1.85,8-5.34,10.93-2,1.69-2.33,5.07-1.75,7.82.7,3.36-.61,5.11.12,8.2a32.09,32.09,0,0,1,.73,3.61c.49,2.84-.61,3.34-.67,5.78-.06,2.24-1.44,3.21-1.07,5.34.67,3.89-1.57,5.21.4,8.58.22.37,1.15,3,1.22,3.22,3.42,8.37-.16,14.88,3,21.32.65,1.34-.07,3.93,2.14,3.7a4.08,4.08,0,0,0,3.9-4.52c2-5.82.62-3.63,3.18-10.59.73-1.54,1.49-4.36,2.46-6,1.16-2,2.14-4.13,3-5,2.32-2.41,2.16-3.33,2.69-6.86.66-4.34,3.53-6.28,4.82-10.26a33,33,0,0,1,2.86-6.45c1.55-4.58,7.89-9,10.48-11.47,6.4-6,10.49-5.92,14.54-14.64.63-1.34,1.19-2.72,1.75-4.1,1.38-3.42,4.4-4.37,7.17-6.13,5.64-3.6,9.43-9.28,12-15.83,3.23-8.14,7.07-16,13.4-22,2.41-2.28,2.47-5.07,3.42-7.94.63-1.9.22-3,.82-4.25.13.06,0-.75.33-1.64s.49-.83.55-1.58c.34-.87-.06-1.06.42-2.52,2.41-7.24,4.47-10.5,2.54-21.14-2-8.12-2.93-15.84-6.4-25.89-1.89-7.89,3.68-12,5.15-13.29,8.69-1.84-1.83-6.76-6.22-9-2.84-4-1.1-13.52-3.75-16.61-1.18-1.37-2.46,5.85-6.68,5.89-2.38-1-8.18-3.67-11.06-6.66a24.75,24.75,0,0,0-8.74-6.95c-2.45-1.13-22.09-2.23-19.37-3.8,3.11-1.81,17.46,1,19.6,1.38,3.84.64,15.74,12.34,19.57,12.17,5.81-.26,6.56-14.05,4.45-19.51-.89-3.64-.3-7.11-6.34-14.55-1.22-2.64-1-3-2.19-7.86a23.14,23.14,0,0,0-1.83-5.66,146.32,146.32,0,0,0-7.47-12.72c-.89-1.39,10.76,13.39,10.87,15.37.54,9.63,6.84,14.53,9.51,23.18.13.43.51.85.48,1.24-.66,9,4,17.06,4.13,25.92.05,2.51-.33,5.38,2.87,6.28s8.14,8.33,9.45,5.47c1.08-2.34,9-12.36,10.61-14.29,4-4.8-.05-9.8-3.2-15.36-1.61-2.85-3.82-6.82-4-10.34-.15-2.51,1.55-5.21-5.31-8-5.85-.44-.64-1.5,5.31-1.21,1.28-2.9,2-5.12.09-8.4-1.21-2.07-2.34-3.69-1.37-5,2.1-2.84,1.19-1.19,5.33-4.46-.23-2.8-1.48-3-2.77-4-3.29-2.56-4.57-2.94-5.85-4.59-.83-.82-.83-1.54-1.61-4.05-.64-1.5-1.46-7.54-.91-6.27.84,1.94.78,2.36,1.3,3.63,1.06,2.63,1.73,4.78,5.29,7.51,3.38,2.61,1.43,1,4.71,3.1,3,2.89,2.79,3.37,2.74,4.29s-1.16,1-1.78,2a6.32,6.32,0,0,0-3.53,6.71c.34,1.71,1.78,4.41,1.38,6-.67,2.66-2.69,5.74-1.71,7.83,1.87,4,.82,8.57,3.9,12.36,1.83,2.24,3.41,6.41,5.22,8.3,1.08,3.44,4.8,5.68,7.59,4.06a34.2,34.2,0,0,1,10.65-4c2.67-.48,5.6-3.21,6.54-5.9,2.53-7.21,5.08-15.32,2.2-23.36-.34-.93-4.8-8.92-5.67-8.5-2,1-11,1.94-9.7,0,12.44-.78,10.38-3.12,13.54-8.31,1.92,1.11-1.57,5.48-1.47,7.34.09,1.53,4.6,6.79,4.86,8.3.17,1,1.74,5.21,2.64,4.84,2.25-.94,4.88-2.33,7.14-2.32,1.74,0,4.3-3.58,2.56-5.8-1-1.31-5-4.6-3.84-5.6.93-.81,4,3.26,5.12,3.67,1.57.58,3.18,2.5,2.93,3.86-.65,3.52-3.36,5.21-6.55,6.92-1.78.95-3.71,1.57-5.52,2.46-1.16.58-3.6,3-2.93,4.53s3.62.45,4.57,0c1.62-.77,5.37-4.33,5.85-2.51.59,2.21-8.46,6.53-10.61,7.73-1.32.74-.64,9.62-2.19,11.4,3.86.29,10.44-.74,13.72-.2,5.35.88,8.15-1.13,12.62,1.35,3.78,2.11,12.44,10.24,12.62,15.26-.8,2.75-6.47-6.67-7.68-8.11-3-3.52-10.27-2.52-14.27-3.28-2.88-.55-6.8.55-10.06-.39s-5.44,1.67-8.46,1.4a17.74,17.74,0,0,0-6.66.77c-3.74,1.11-2.24,1.19-6.83,3.43-2.11-.33-7.4,1.81-8.48,3.38-2.55,3.73-6.64,6.17-8.06,10.85a4.63,4.63,0,0,1-2.45,3c-3.48,1.44-5.22,4.94-7.86,7.19-5.89,5-4.5,11-2.26,16.32,1.92,4.56,1.83,9.19,2.74,13.73s9.67,13.2,13.87,11.44c5.13-2.16,7-2.44,12.07-4.64.53-.23,6.78-4,7.32-4.12,5.1-.93,12.39-3,10.36-8.37-1.15-3.08-6.14-5.25-7.19-8.37-2.2-2.32-3.26-6.2,1.1-9.4,2.3-1.69,1.08-6,1.7-9.4.35-1.89-.85-16.49.86-16.36s3.91,14.78,4.07,16.47c.24,2.64.84,5.16-.28,8-3.15,7.78,3.4,13.83,10.6,19,4.91,2.13,8.75,6.56,11.95,3.73.86-.76,8.24-1.6,9.14-1.54,10.74.59,4.48-14.91,8.54-16.23,3.74-1.21,9.6-.6,11.95-3.09.8-.84,2.26-6.84,3.17-7.35,6.71-5.94,7.65-8.8,10.67-17,2.26-6.11,1-12.79,0-19.51-.29-1.93-3.51-8.69-3.84-10.62s-5.86-9.73-4-10.62,4.8,5.65,6.34,7.4c1.15,1.31,3.44,3.57,3.66,5.15.7,5.06,2.18,9.59,3.29,14.43.3,1.31.28,13.24,1.83,13.52s11.41-2.38,12.19-3.67c1-1.65,3.18-4.44,4-6.18.52-1.09.26-7.95,1.13-8.9,2.93-3.19,1.28-2.73,3-8.14.73-2.27-1.82-4.92-1.09-7,.91-2.65-5.16-16.91-2.75-15.84,2,.88,9.85,18.56,9.32,20.47-1,3.71-1,7.72-3.51,11a5.41,5.41,0,0,0-.09,6.73c1.53,2,3,6.95,5.22,6.34,4.55,1.61,10.59-.84,15.65,1,9.75,4.18,19.63-6.7,23.9-3.42,1.05.81-8.67,4.56-9.57,5.09-2.37,1-2.48,1-10,3.29a3.29,3.29,0,0,1-1.32.13c-4.26-.5-9.68-1-14.18-.07-2,.39-6.4,1.46-7.93.77-7.49-3.33-17.64,3.68-25,6-1.49.47-2.65,4.77-4,5.54s-8.36,8.48-7.56,10.82c.87,2.56.73,4.28,4.84,4.56,13.86,1.18,14.39-.21,20.36,4.63,1.42,1.12,9.25,2.13,10.65.58,3.89-4.33,8.47-5,14.05-7.34,5.23-2.23,10.07-2.48,15.73-2.36,5.5.12,7.34,3.24,16.34,2.19a7,7,0,0,0,2-.65c15-8.14,10.39-4.42,1.88,2.27-2.39,1.88-15.24,1.63-18.38,1.16-6-.9-14.82.87-20.49,5.31-2.22,1.74-4.92,6.72-6,9.66-1.83,4.83,5.23,8.68,4.76,11.78,2.1,2,5,3.06,7,5.22,2.84,3.14,12.92,1.87,16.65-.77,6.4-1.74,7.31-3.29,15.91-1.36,3.7-.24,15.81-.42,15.37,1.16s-13.5,2.77-14.92,2.91c-6,.58-11.79,2.25-17.62,3.74a13.79,13.79,0,0,0-4.09,1.23c-5.83,3.79-10.64.73-15.27-2.55a31.52,31.52,0,0,1-11.1-14.36c-.88-2.23-3.25-4.47-7.19-6.49-2.56-1.35-6.21-1.82-7.31-3.09-1.88-2.15-5.28-2.24-7.69-2.7-4.14-.8-8.06-.42-11.56-3.08-3-2.29-7-.84-10.33.12-2.09.6-4,2.21-6.32,2.49a2,2,0,0,0-1.56,2.63c.93,3.63-.58,6.51-2.72,9-1.47,1.72-1,2.92.4,4.16,3.15,2.82,5.65,7.4,8.86,10.14.61.51,5.05,2,5.58,1.74,3.71-1.95,6.42.24,9.42,1.93.85.55,4.26-.07,6.22.19,5.31,1.84,6.73,1.54,11,5.31,1.28,1.14,2.15,3.09,3.66,4.06,2.32,1.49,6,6.9,5.06,9s-4.58-3.86-6.44-4.32c-.27-.07-3.29-3.37-4.75-4.05-6-2.79-6.45-.08-11.25-3.77a11.79,11.79,0,0,0-4-.46c-5.65,1.36-10.41-3.12-15.92-2.66a2.93,2.93,0,0,1-2.38-.74c-4.14-6.59-12.86-6.11-17.18-12.61-1.63-2.45-4.91-5.59-7.34-3.45-2.23,2-8.27,1.62-10.93,1.41-4.52-4.62-7.69.9-11.95,2.31-1.38,1.87-4.88,2.45-8,3.29-5.72-1.08-8.73,4.06-14,6a31,31,0,0,1-6.21,1.45c-6.08-.25-14.33-2.44-14.73,4.73-5.38,8-2.56,22.22-9.31,29.42-2.86,3.05-5.59,5.94-7.37,10.08-1.44,3.36-1.22,3-2.68,7a4.34,4.34,0,0,0-.44,4.39c.74.81,1,.75,2.18.74,5.72-.09,9-1.9,14.81-1.5a6.45,6.45,0,0,0,4-1.3c7.83-2.82,10-2.75,19.27-2.75,3.63,1.73,13.1-2.92,16.06-5.92,4.84-4.91,4.26-9,7.56-12.37,2.69-.64,12.93-39,7-6.69-.19,1-2.9,9.82-3.17,10.81-.56,2.05-5.69,8.83-1.77,10.14s10.3,1.16,13.29-1.25c7.19-1,8.44-.93,12.32-2.06,4.43-1.29-1.3-9.42,1.34-14,1.23-2.15-.12-17,5-8.5,2.47,1.37-.11,6.11,1.22,10.31.61,1.92.85,8.13,2.56,9.46,1.94,1.52,11.11-.2,12.62-.58,11.53-2.93,12.63-5.7,25.24-1.74,13.54,9.66,22-16.89,22.87-16.2,7.15,6-9.13,20.84,4.75,24.7,4.8,3.22,11,2.18,15.92,4.06,1.84.7,4.07-.71,6-.41,1.25.19,21.62-10.17,21.94-8.39s-19.5,13.16-20.78,13.83c-10.19,6.62-33.55-6.1-43.66-8.25,7.11,18.48,26.39,27.7,21.27,26.87-5.8-.94-8.75-6.82-19-14.51-1.84-1.38-8.29-8.88-12.68-13.3-3.3-3.32-21.83.52-26.34,1.13-2,.28-18.69,3-19.42,5.42-.66,2.23,14.17,8.12,15.13,9.53,3.8,5.62,11.29,7.81,16.54,10.36,9.54,4.61,18.16,8,26.34,15.06,4.79,4.13,11.12,16.26,17.38,11.59,1.83-1.36,7.67-4.29,10.06-4.44,6.71-.43,7.57-5.93,14.27-5.21,5,.54,8.75-6.26,13.14-2.36.44.39,6.12,2.51,6.4,3,1,1.74,8.86,2.43,8.14,4.54-.65,1.92-7.88-1.49-9.49-1.12-1.11.26-5.38-1.36-6.46-1.54-5.21-.9-9.36.17-13.17,3.6-3.29,2.95-.19,1-6.71,4.51-3.94,2.13-6.27,1.5-9.23,7.88-.34.86-.24,3.32.46,3.77,3.23,4.38,2.4,4.86,4.62,7.41.8,1.1,6.84,5.14,7.2,6.65.41,1.79,10.47,10.89,8.64,11.66-5.86-5.9-12.65-9.06-18.89-14.45-3.84-3.32-10.87-12.5-16.47-14.58-2.71-1-4.58-4.65-7.55-6.8-2.74-2-11.34-8.45-12.31-12.41-.85-3.54-13.6-10.72-16.79-9-2.23,1.19,6.81,12.19,8,13.73,1.57,2,1.19,2.7,2.06,5.12-.13.24,1.25,2.17,1.33,2.22,4.76,2.7,1.46,9.12,4.29,12.87a23.44,23.44,0,0,1,4.7,14.25l2.26,9.53c-2.93-3.24-10-22.17-13.54-24.34-2.92-1.79-6.95,13.72-10.06,16,0-4,4.76-16.8,6.4-20.59,3.35-7.72-11.63-20-14.23-28-.66-2-5.1-3.81-6.51-5.39-2.28-2.55-6.76-3.57-8.37-6.71-.73-1.42-6.85-7.34-8.51-7.51-9.34-1-13.6-1.33-22.95-2.28-4.3-.43-13.64,2.07-14.24,6.65-.42,3.18,2.1,8.2-.19,10.62-2.13,2.27,1,7.37.88,10.39-.08,1.73,4.58,13.2,2.6,13.95-1.68.64-7.41-10.31-8.14-11.42-2.36-3.65-4.56-6.73-4.48-12.34,0-3.2-.93-9.75-4-9.3-8.89,1.29-23,5.53-31.8,7.5-3.21.73-8.46,5.57-11.34,7.6-4.45,3.15-3.86,8.72-6.44,14-.67,1.37-.64,2.19.31,3.13a5,5,0,0,0,3.49,1.57c7.25,0,14.24,3.15,21.57,2.09,4-.57,5.56,3,7.42,5.24,3.61,4.42,7.17,7.26,13.24,7.43,4.43.12,9,.51,13.52,1.07,2.5.31,11.39.23,13-1.93,2.58-3.37,4.05-5.66,7.69-7.73,4.93-2.8,5.87-3,6-9-1.4-3.9-5.85-9.85,2.78-.14,1.48,4.34-2.15,13.57,6.85,11.47,9.91,1.35,3.06-14.64,8.27-.39,1.16,3.18-3.72,4.58,9.27,11.51,2.09,1.11-14.68-2.87-17.14-3.64-4.19-1.3-8.49-.53-12.67.54-1.07.27-2.41.66-2.55,2.07s1.29,1.44,2.08,2c2.3,1.46,4.18,3,3.34,6.3a4.25,4.25,0,0,0,.17,2.37c.74,1.7.6,5.71,5.73,9.61.46.35-7.58-2.9-8.87-6-1-1.64-3.49-4.56-5.66-4.3-9.72,1.17-19.43,3.11-29.13-.94-2.71-1.13-6.2-.43-9.31-.19-2.17.17-3.09,1.48-1.49,3.7A174.09,174.09,0,0,1,388,486.35c.77,1.51,1.58,2.85,3.17,3.48.53.22,1.4.41,1.5.78,1,3.87,4.32,4.43,7,6.22,4.14,2.82,10.87,5,14.59,1s4.5-3.46,8.23-7.63c1.39-1.55,5.49-4.74,7.78-4.64,1.32.06,9-3.33,10-1.93,1.08,1.6-8.94,4-9.88,5-3,3.29-3.35,6-7.77,7.92-1.09.48-2.72,10.05-1.37,11.49,5.27,5.62,8.32,9.91,16.82,10.09,2.88.06,9.13.45,10.06,3,2,5.48-.51,7.52,4.64,11.74,2.33,1.91,5.5,6.56,19.39,11.52,4.14,1.48-17.68-5.33-20.92-8.1-7.4-5-4.15-10.59-13.53-10.06-3.23.18-9.07.55-10.25-2.73-1.62-4.52-8.07-2-9.14-7.3,0-.13-13-7.2-13.26-7.19-10.45.31-9.92-4.34-17.34-9.34-1.65-1.11-2.8-3-4.8-3.67-4.87-1.64-6.87-5.8-8-10.54a7,7,0,0,0-3.28-4.48c-2.79-1.8-6.12-3.16-8.13-5.68s-3.73-6-5.57-9c-3.4-5.57-8.36-8.4-14.44-7a30.54,30.54,0,0,0-9.91,4.15,18,18,0,0,1-5.34,2.56c-1,.24-2.29,1.89-3.58,3.42-2.66,5.06-6.83,6.47-6.36,13.08.18,2.43-1.11,4.31-2.71,6.3-2.21,2.76-2.89,6.5-3.26,10.24a11,11,0,0,1-1.38,4.9c-.75,2.14-1.11,2.9-.4,4.93,1.12,1.52.31,3.2.52,5,.71,6-1.77,12,.9,17.95,2.24,5-1.13,10.51.49,15.62a8.78,8.78,0,0,1-.46,2.53c-1.85,3.51.24,7.7-.7,12.29a9.75,9.75,0,0,0-.19,3.84,5.3,5.3,0,0,1,0,2.47c-1.24,2.7-.64,7.37-1.12,9.2-.25.58,0,1.11-.07,2,1.07,2.92-.41,12,.19,18.06.67,6.85-.63,13.63,0,20.49.36,4.08-.94,8.31-2.61,12.15-.66,1.51-1.48,3.6-1.29,4.6,1.14,8.32-2.71,15.94-3.26,24,.49,2.69-1,5.62-1.44,7.84-.25,3.46-1.46,5.74-1.27,8.59.33,4.69-.62,9.39.77,14.15.94,3.21-2.47,6.69-6.41,7.06-5.52.51-10.95,2.23-16.6,1.34-3.19-.5-6.17.85-9.2,1.75-3.44,1-6.91,1.33-9.24-2.33-2-3.09-1.3-9.52.82-12.37a16.93,16.93,0,0,0,1.57-5.51,39.32,39.32,0,0,1,5.39-21.11,29.91,29.91,0,0,0,3.39-14.22c.08-4,0-8.26,1-11.92.17-3,.14-3.86.16-7.27a24,24,0,0,1,.08-8.69,20.22,20.22,0,0,1,.48-4.73c.61-3.93.67-3.37,1.15-6a90.49,90.49,0,0,0,.11-32.94c-.79-4.29-2.3-9-.86-13.59.24-2.62.64-2.37-.24-4.49s-4.12.35-5.64,1.26c-1.55.61-1.51,1.81-1.43,3.83.34,8.32-1,15.67-1.34,23.51-.22,5.36-2.34,10.64-.72,16.09,0,.14.16.32.12.42-3.71,8,1.39,17.12-2.87,25.29a50.83,50.83,0,0,0-5.78,17.2c-.41,3.29-1.3,6.69-.68,9.84,1.29,6.64-1.69,11.69-4.58,16.87-.58,1-1.45,1.91-1.5,3.17-.45,11.07-6.55,19.18-13,27-2.78,3.36-7.24,3.09-11.14,3.67-1.81.27-3.81-.29-5.51.27a14.66,14.66,0,0,1-11.31-.87c-5.85-2.75-10.28-10.43-9.22-17.1.93-5.91,4.51-9.65,8.09-13.69,1.69-1.91,2.52-4.67,3.68-7.08.39-.8.37-2.29.86-2.47,7.06-2.65,5.21-9.26,5.74-14.6.67-6.68,4.22-11.69,7.77-16.76.59-.84,1.74-1.37,1-2.58-1.17-1.89.36-3.36.45-4.93.46-7.5,6.09-13.23,5.94-20.93-.09-4.48,5.14-8.58.95-13.46,3.8-7.83,2.18-16.08,1.58-24.21-.17-2.34,1.22-4.08,1.69-6.07,1.65-7-3.54-12.64-2.57-19.42.68-4.7.26-9.57.29-14.37,0-3.89-.76-7.71-1.18-11.52-.75-6.71-4.27-13.1-2.41-20.13.11-.41.13-1.19-.06-1.29-3.67-2-2.68-6.85-5.15-9.45-4.73-5-9-10.29-11.52-16.89-.16-.4-.5-1-.76-1-5.26,0-6.17-6.34-10.33-8a2.75,2.75,0,0,1-1.54-1.49c-1.51-5.51-5.79-5-9.37-4.14-9.1,2.2-15.24,1.08-25,4.34-2.42.8-8.17.83-10.85,1.16s-1.44,6.17-1.66,9.14c-.25,3.45-1.06,3.81-2.49,6.92a13,13,0,0,1-7.59,7.15c-1.48,0-14,10.57-14.73,9s14.78-15,16.1-15.74c5.18-2.75,5-17-.73-16.13-7.65,1.13-24.88,2.77-29.39,5.47-5.49,2.58-9.57-.19-12,7.09-.38,1.15-4.78,5.43-4.33,9.65.82,7.66,6.47,8.44,8.11,13.27.43,1.26-9.27-8.76-11.34-7-8.89,7.73-15.28,18.39-18.42,18.81-1.73.22,7.78-11.65,13.37-22.1,5.17-9.66,6.47-17.84,4.56-20.4-3.42-4.57-27.25-5.82-30.34-5.47-13.53,1.53-35.34-12.59-33.81-12.19,45.06,11.61,36.1,2.91,54,6.2,21.81,4,25.91-2.11,30-4.77,7.74-5,3.93-12.08,4.75-12.36,6.83-2.28,8.42,7.6,16,9.27,1.85.41,17.74.23,19.51-.38,6-2.06,11.14-.27,13.9-.65,3.1-.42,4.18-2.11,7.14-3.13,2.7-.92,2-4.78.54-6.53-4-4.77-5.57-2.64-12.57-3.15-5-.36-10.51.65-14.85-1.24-3.84-1.67-8.29-4.38-11-7.71s-4.43-7.19-9.18-7.62c-1-.1-11.25,1.11-11.32-.17s10-3.75,10.92-4.33a6.86,6.86,0,0,1,4.1-1.11c5.78.16,9.28,5.31,14.07,9.11,1,.8,9.53,3,11.52,2.32,13.29-4.51,1.54-12.23.49-13.91-1.72-2.74-19.61-8.3-16.95-9.27,3.17-1.16,12.31,1.15,15.24,2.19,6.59,2.31,8.78,7.15,14.51,10.3,2.71,1.48,6.9-2,9.15-3,4.74-2,6.94-15.13,6.71-3a10,10,0,0,1-4.25,8.42c-1.35,1,.24,2.32,1.26,3.16,2.83,2.32,5.51,2.25,9,7.74.75,1.19,2.63,7.24,3.84,7.53,1.72.42,5.06-.18,5.68-2.12.4-1.28-2.14-7.85-1.65-9.08.71-1.77,1.52-11.5,2.74-9.85,1.93,2.61,1.06,11.33,3.39,11.36,3.57.05,4.07,3.89,6.31,5.58.86.65,5.64,4.93,7,4.11,1.47-.9-1-3.12-1.65-4.24-1.62-2.79-3.18-6.14-1.2-7.66,2.18-1.68,1.92-2.81-.73-3.8a5.28,5.28,0,0,1-3.13-4.44c-.22-4-2.75-6-5.47-8.47-2.27-2.09-4.11-5-6.08-7.62a5.82,5.82,0,0,0-4.86-2.74,28.56,28.56,0,0,0-5.55.08c-7.55,1.17-8-1.28-12.58-5.77-.66-.65-3.5-5.33-4.32-5.82-3.4-2.06-2.75-3.47-6.32-2.83a34.43,34.43,0,0,0-8.78,2.71c-7.5,2.52-7.08,4.2-14,7.59,0,0-8.58,4.21-21.54-.88a7.61,7.61,0,0,1-4.12-2.92c-.65-1.07-.58-1.74-1.29-2.47-1.29-1.32-3.43-1-4.77-.85-8.73,1.07-10.91-.77-19.08,1.79a7.92,7.92,0,0,0-1.21.43c-6.59,3.22-14.17,13.48-11.28,15.88.21.17,1,5,1.46,5.79s-.71,8-1,8.21c-2,1.48,1.38.12-.73,5-1.43,3.31.61,4.63-.73,5.66-.34.26,1.42-.58,1.18.26s.15,1.45.69,3.21,14.17,7.49,14,8.32c-.32,1.47-15.17-2.5-16-2.08-5.4,3-4.37,1.29-8.74,3,0,0-2.89,3.6-12.81,5.41-.52.1-9.21-2.12-9.51-2.9-.46-1.2,10.46-.7,11.28-1.06,4-1.74,11.77-6.43,13.05-8.63,4.63-8,3-17,2.72-18.67a16.85,16.85,0,0,1,.36-4.25c-.74-.69-4-7.62-4.39-7.63-2.44-.12-7.17,2.06-9.51,6.66-1.14,2.25-3.77,3.13-5.21,4.16a13.87,13.87,0,0,1-6.22,1.54c-4.13.14-6.58,4.66-7.59,4.93-3.44.91-4.49,3.64-5.31,6.18-.27.84,1,1-3.57,3.57-.73.42-3.6,4.54-3.6,4.54s.45-4,1-4.41a11.18,11.18,0,0,0,3.68-5.5c3.72-7.68,3.77-5.6,5.13-7.34s2.24-4.21,3.65-4.8,5-2.25,6.22-2.28c5.11-.16,4.21-2,6.57-3.12,1.91-.9,3.12-1.75,3.68-3.15.4-1,2.54-2,2.87-3.36.26-1.07,1.09,1,3.63-2.42,1.59-2.13,5.92-5.71,6.1-6.7.25-1.42-7-1.36-7.07-1.57a3.9,3.9,0,0,0-1.1-1.84c-.67-.57-1.18-.45-3.71-.89-.72-.12-1.33-.22-2.07-.4-2.29-.54-2.64-1-3.48-1-1.62,0-5.22,1.48-7.09,3.12-4.27,3.75-9.41.15-10.06,1.54a25,25,0,0,1-12.07,12c-3.29-.68,8.37-7.05,10.84-15.74a12.44,12.44,0,0,0-3-9C31.22,364,28,355.49,31.26,359c9.14,9.65,11.63,20.08,12.07,20a14.66,14.66,0,0,0,2.28-.35c1.34-.36,4.24-.9,5.31-2.13.95-1.07,2.68-1.68,5.58-2.22,2.34-.43,3.46-.35,7.23-.09,3.44.23,4.17.09,6.13,1.35.58.37.87-.23,1.78.12a9.16,9.16,0,0,0,5,.22c6.28-.85,6.12-.12,7.9-1,1.44-.68,2.46-1.68,4.49-3.68,3-2.93,3.26-4.19,5.19-5s2.91.08,4.9-.18c4.69-.64,9.51-7,9.12-12.68-.15-2.16-2-4.57-5.66-9.31-4.89-6.31-7.41-9.5-11-11.18a19.75,19.75,0,0,0-8.94-1.72c-5.7.06-8.15,2.2-14.74,4.44-1.8.61-4-.21-13.67,1.5-12.37,3-9.26,1.78-15.51,2.65-.41.06-3.45,5.33-5.58,11.32-.5,1.39,1-11.2,2.25-12.3.36-.3-11.82-5-8.35-5a18.77,18.77,0,0,1,7.13,1.35c2.55.2,9.28,1.38,12.5-.35,8.74-4.69,5.9-2,15.32-4.83.3-.09,7.55-1.59,8.28-1.74,2-.4,2.2-.82,3.29-3.28.08-.18,1.19-1.31-.33-2.12.13-.66-1.16-1.22-2.36-2.64a11.79,11.79,0,0,1-1.21-1.86c-1.94-3.14-3-4.86-4.77-5.46-.8-.28-1-.08-3-.59-1.41-.36-7.68-2.83-8-3.33-.43-.77-4.56-14.4-4.51-14.55s7,9.16,7.44,9.52a35.48,35.48,0,0,0,5.85,4c2.5.61,2.11-.37,6.58.67,3.9.9,2.92,1.63,3.26,2,.82.78.58,1.1,1.73,2.87,1.31,2,2.39,3.65,3.85,3.74,1,.05,4.62,0,6.14-1a48.55,48.55,0,0,1,4.9-2.58c1.55-.39,7.11-8.25,7.44-8,.48.38-2.74,7.91-2.93,8.76s-7,4.57-7.53,4.79a4.13,4.13,0,0,1-.82.27c-2.1.58-3.35.94-3.57,1.73a1.53,1.53,0,0,0,0,.69,1.84,1.84,0,0,0,.46.84,11.67,11.67,0,0,0,3.61,1.78c3.21-1.2,5.66,3.53,11,5.8,4.67,2,4.86,2,8.05,6.57.82,1.17,4.24,4.54,7.32,8.5,3.35,4.31,3.64,8.58,1.84,10.71a3.28,3.28,0,0,0,.27,3.42c.55.57,1.14.26,2.71.64.76.18,3,.71,3.73,2.24.49,1,0,1.58,0,2.92.06,3.87,4.14,6.86,6.15,8.33a11.09,11.09,0,0,0,3.56,2,11.27,11.27,0,0,0,6.82-.39c13.86-4,11.87-4,15.33-6.82,1.72-1.38,5.22-2.32,7.32-2.89,3.34-.92,4.53-.52,4.84-1.74.12-.45,8.28-2.1,7.88-2.7a32.79,32.79,0,0,0-4.58-5.41c-3.05-2.34-3.54-4-3.29-7.92s-21.49-.92-24-2c-3.48-1.51-18.23-17.91-14.63-17.77,2.6.1,14.13,13.15,20,12.23,5.24-.82,18.86-.4,19.87-.9,1.36-.67.68-7.88-.24-14.81-.45-3.37-9-13.28-10.37-17.51-1.64-5.3,13.6,12.49,14.88,17.51.83,3.27,3.23,24.67,5.36,27.23,3.41,4.09,12.41,17.95,14.59,18.59,12.46,3.69,12-3.36,12.09-5.87s-2.89-16.16-2.58-18.46c.47-3.54-.38-6.33.18-9.66.64-3.77.82-6.12,2.24-9.58,2.24-5.46,3.21-16.34-1.69-19.89-3.9-2.84-9.28-8.93-5.8-12.61,10.19-10.77-.18-13.44-7.55-15.79-9.44-3-9,4.42-17.62,6-.84.15-16.63,8-17.45,8-4.22.12-4.86,2.82-4.39,6.46.28,2.21.95,4.49-.89,6.4-1.06,1.1-21.46,10.59-23.06,9.84s16.91-10.85,17.42-12.57c2.19-7.49,3-6.4-1.08-11.71-.88-1.13,18.27-6.26,18.47-6.94.36-1.2,13-8.91,12.93-9.28,0-.67-22.71,3.78-30.24,4.64-1.2.14-14.56,5.17-17.08,5.67-9.26,1.84-14.52,5.39-19.51,5.15-3.3-.17-7.3-2.5-12.68-3.35-6.84-1.09-5.23-4.26-10.14-5.69-3.7-1.08-4.3-2.3-8.2-2.87a22.48,22.48,0,0,0-6.41,0c-5.25.62-7.85-1.06-12.08.3-15.37,4.93-12.9,10.4-16.89,11.94,0,0-7.29,3.43-6.22,2.58,11-8.83,7.94-7.42,10.12-10.4.43-.59-2-4-2-4.7-.24-3-7-11.49-3.54-8.44a15.19,15.19,0,0,1,4.62,6.09C45,283.7,57,274.08,60.35,273.8c11.43-1,18.9,1.09,18.93.67.11-1.63-10-14.34-11.16-15.45-5.06-4.74-13.24-4.06-12.87-4.48.13-.14,8.11-3,8.66-2.86,4.94,1.74,10.73,13.2,12.75,12,1.3-.75-.19-14.58-.19-14.58,3.85,3.86,2.15,12.37,3,15.84,1.56,6.18,2.75,8.54,6,10.52,5.28,3.19,10.5,7.83,14.85,6.86,10.11-2.25-4.82-25.63-4.58-27,.2-1.13,1.43-12.71-.42-15.71-2.82-4.56-8.51-8.5-10.61-11-.3-.35-18.39-4-18.17-4.76s12.19-.14,12.8-.26c5.63-1.08,13.25,8,16.22,10,.87.6,6.07,4.4,6.95,7.09.46,1.4,22.2-10.09,23.17-9.28.54.46-9.11,7.35-10.49,8.5-2.92,2.45-9.13,4.55-9.51,4.77-4.63,2.7-5.54,7.63-5.36,8.24.69,2.42,1.92,3.25,3.84,4.63s15.91-1.09,21.17-2.75c16.61-5.23-12.7,7.33-16.42,6.42-4.8-1.16-4.19,7.78-2,8.7,1.81.76,5.88,11.45,10.06,8.69,1.06-.7,14.18-.77,15-4.06.33-1.31,12.07-2.85,13.17-3.67.28-.2,22.73-3.12,24.44-3.67,1.2-.39-22.68-19.55-22.49-20.15s-10-21-10.06-21.06c-.19-.36-5.67-19.51-4.51-19.7s12,37.22,23.17,40c.37.09,7.5-3.29,9.51-9.47.29-.87-1.48-16.38-1.46-17.38.22-11.58-1.83-21.25,1.46-24,1-.78,5.86,35.35,4.21,42.69-1.1,4.89-6.89,10.84-7,12.37-.18,4.25,7.22,9.14,9,10.23C174,262.47,179.88,263.44,185.5,266.13Z" transform="translate(-26.34 -183.53)"/></svg>